<svg width="112" height="106" viewBox="0 0 112 106" fill="none" xmlns="http://www.w3.org/2000/svg">
<path d="M23.3784 66C21.8184 66 20.3184 65.85 18.8784 65.55C17.4384 65.25 16.1484 64.71 15.0084 63.93C13.9284 63.15 13.0284 62.07 12.3084 60.69C11.6484 59.31 11.3184 57.51 11.3184 55.29V11.46C11.3184 9.42 11.7384 7.71 12.5784 6.33C13.4184 4.89 14.4684 3.78 15.7284 3C16.9884 2.16 18.3684 1.56 19.8684 1.2C21.4284 0.839998 22.8984 0.659999 24.2784 0.659999V66H23.3784ZM25.1784 28.56H32.4684C32.4684 31.02 32.0184 33.09 31.1184 34.77C30.2184 36.39 28.3884 37.2 25.6284 37.2H25.1784V28.56ZM33.0984 15.69C33.0984 15.03 33.0384 14.37 32.9184 13.71C32.8584 12.99 32.6784 12.36 32.3784 11.82C32.1384 11.22 31.7484 10.74 31.2084 10.38C30.7284 10.02 30.0384 9.84 29.1384 9.84C27.9984 9.84 27.0384 10.2 26.2584 10.92C25.8984 9.96 25.7184 9.09 25.7184 8.31C25.7184 7.35 25.8684 6.42 26.1684 5.52C26.5284 4.56 27.0684 3.72 27.7884 3C28.5084 2.28 29.4084 1.71 30.4884 1.29C31.6284 0.809995 33.0084 0.569995 34.6284 0.569995C36.4284 0.569995 38.0184 0.899996 39.3984 1.56C40.8384 2.16 42.0384 3.03 42.9984 4.17C43.9584 5.25 44.6784 6.54 45.1584 8.04C45.6984 9.48 45.9684 11.04 45.9684 12.72V66C44.3484 66 42.7584 65.88 41.1984 65.64C39.6984 65.4 38.3184 64.92 37.0584 64.2C35.8584 63.42 34.8984 62.28 34.1784 60.78C33.4584 59.28 33.0984 57.27 33.0984 54.75V15.69ZM76.87 50.79C76.87 51.45 76.9 52.14 76.96 52.86C77.08 53.52 77.26 54.15 77.5 54.75C77.8 55.29 78.19 55.74 78.67 56.1C79.21 56.46 79.93 56.64 80.83 56.64C81.91 56.64 82.87 56.28 83.71 55.56C83.89 56.04 84.01 56.49 84.07 56.91C84.19 57.27 84.25 57.69 84.25 58.17C84.25 59.13 84.07 60.09 83.71 61.05C83.41 61.95 82.9 62.76 82.18 63.48C81.46 64.2 80.53 64.8 79.39 65.28C78.31 65.7 76.96 65.91 75.34 65.91C71.74 65.91 68.95 64.83 66.97 62.67C64.99 60.51 64 57.54 64 53.76V0.479996C65.62 0.479996 67.18 0.599996 68.68 0.839997C70.24 1.08 71.62 1.59 72.82 2.37C74.08 3.09 75.07 4.2 75.79 5.7C76.51 7.2 76.87 9.21 76.87 11.73V50.79ZM98.65 66H97.75C96.19 66 94.69 65.85 93.25 65.55C91.81 65.25 90.52 64.71 89.38 63.93C88.3 63.15 87.4 62.07 86.68 60.69C86.02 59.31 85.69 57.51 85.69 55.29V0.659999H87.13C88.57 0.659999 89.98 0.839998 91.36 1.2C92.74 1.5 93.97 2.07 95.05 2.91C96.13 3.69 97 4.77 97.66 6.15C98.32 7.53 98.65 9.3 98.65 11.46V66Z" fill="white"/>
<path d="M23.9243 73.465H30.6743C32.8643 73.465 34.5143 73.84 35.6243 74.59C36.7643 75.34 37.3343 76.645 37.3343 78.505V103.435C37.3343 104.485 37.1693 105.175 36.8393 105.505C36.5393 105.835 35.8793 106 34.8593 106H30.1343V79.045C30.1343 78.565 30.0593 78.235 29.9093 78.055C29.7893 77.845 29.4593 77.74 28.9193 77.74H23.9243V73.465ZM7.58934 106H2.86434C1.84434 106 1.16934 105.835 0.839336 105.505C0.539336 105.175 0.389336 104.485 0.389336 103.435V75.265C0.389336 74.725 0.539336 74.29 0.839336 73.96C1.13934 73.63 1.52934 73.465 2.00934 73.465H7.58934V106ZM9.43434 73.465H20.9543C21.4343 73.465 21.8243 73.63 22.1243 73.96C22.4243 74.29 22.5743 74.725 22.5743 75.265V102.715H17.8943C16.9943 102.715 16.3493 102.475 15.9593 101.995C15.5693 101.485 15.3743 100.675 15.3743 99.565V79.045C15.3743 78.565 15.2993 78.235 15.1493 78.055C15.0293 77.845 14.6993 77.74 14.1593 77.74H9.43434V73.465ZM46.3755 106H41.6505C40.6305 106 39.9555 105.835 39.6255 105.505C39.3255 105.175 39.1755 104.485 39.1755 103.435V76.03C39.1755 74.98 39.3255 74.29 39.6255 73.96C39.9555 73.63 40.6305 73.465 41.6505 73.465H46.3755V106ZM60.2805 99.7V103.525C60.2805 104.545 60.1155 105.22 59.7855 105.55C59.4555 105.85 58.7655 106 57.7155 106H48.1755V99.7H60.2805ZM57.5805 86.425V89.125C57.5805 90.205 57.4755 90.895 57.2655 91.195C57.0555 91.465 56.4555 91.6 55.4655 91.6H48.1755V86.425H57.5805ZM59.8305 73.465V77.29C59.8305 78.31 59.6655 78.985 59.3355 79.315C59.0055 79.615 58.3155 79.765 57.2655 79.765H48.1755V73.465H59.8305ZM85.44 73.465V103.435C85.44 104.485 85.275 105.175 84.945 105.505C84.645 105.835 83.985 106 82.965 106H76.575C74.805 106 73.635 105.73 73.065 105.19C72.525 104.65 72.045 103.255 71.625 101.005C70.785 96.565 69.57 89.395 67.98 79.495C67.86 78.745 67.68 78.265 67.44 78.055C67.23 77.845 66.855 77.725 66.315 77.695H60.78V73.465H70.545C71.295 73.465 71.895 73.555 72.345 73.735C72.795 73.915 73.155 74.305 73.425 74.905C73.725 75.475 73.92 76.03 74.01 76.57C74.13 77.11 74.25 77.74 74.37 78.46C74.52 79.33 74.73 80.605 75 82.285C75.51 85.675 76.305 90.46 77.385 96.64C77.805 99.28 78.09 100.765 78.24 101.095C78.42 101.395 78.72 101.575 79.14 101.635V75.265C79.14 74.725 79.29 74.29 79.59 73.96C79.89 73.63 80.28 73.465 80.76 73.465H85.44ZM60.78 79.27H65.46C65.94 79.27 66.33 79.435 66.63 79.765C66.93 80.095 67.08 80.53 67.08 81.07V103.435C67.08 104.455 66.945 105.145 66.675 105.505C66.405 105.835 65.865 106 65.055 106H60.78V79.27ZM94.5473 73.465V100.42C94.5473 100.9 94.6073 101.245 94.7273 101.455C94.8773 101.635 95.2223 101.725 95.7623 101.725H100.622V106H94.0073C91.8173 106 90.1523 105.625 89.0123 104.875C87.9023 104.125 87.3473 102.82 87.3473 100.96V76.03C87.3473 74.98 87.4973 74.29 87.7973 73.96C88.1273 73.63 88.8023 73.465 89.8223 73.465H94.5473ZM101.972 73.465H106.697C107.717 73.465 108.377 73.63 108.677 73.96C109.007 74.29 109.172 74.98 109.172 76.03V100.42C109.172 100.9 109.232 101.245 109.352 101.455C109.502 101.635 109.847 101.725 110.387 101.725H111.197V106H108.632C106.442 106 104.777 105.625 103.637 104.875C102.527 104.125 101.972 102.82 101.972 100.96V73.465Z" fill="#BBEA70"/>
</svg>
